<svg width="20" height="21" viewBox="0 0 20 21" fill="none" xmlns="http://www.w3.org/2000/svg">
<path d="M20 4.71998L15.4 0.859985L14.11 2.38999L18.71 6.24998L20 4.71998ZM5.88 2.38999L4.6 0.859985L0 4.70998L1.29 6.23998L5.88 2.38999ZM10 2.99998C5.03 2.99998 1 7.02998 1 12C1 16.97 5.02 21 10 21C14.97 21 19 16.97 19 12C19 7.02998 14.97 2.99998 10 2.99998ZM10 19C6.13 19 3 15.87 3 12C3 8.12998 6.13 4.99998 10 4.99998C13.87 4.99998 17 8.12998 17 12C17 15.87 13.87 19 10 19ZM8.54 13.53L6.41 11.4L5.35 12.46L8.53 15.64L14.53 9.63999L13.47 8.57998L8.54 13.53Z" fill="black" fill-opacity="0.87"/>
</svg>
