<svg width="40" height="40" viewBox="0 0 40 40" fill="none" xmlns="http://www.w3.org/2000/svg">
<circle cx="20" cy="20" r="20" fill="#F0F0F0"/>
<rect x="11.7857" y="8.21432" width="16.4286" height="22.1429" rx="1.78571" fill="white" stroke="#C2C2C2" stroke-width="0.714286"/>
<rect x="14.2857" y="30" width="2.14286" height="2.14286" rx="0.714286" fill="#C2C2C2"/>
<rect x="23.5714" y="30" width="2.14286" height="2.14286" rx="0.714286" fill="#C2C2C2"/>
<path d="M19.5815 20.6138C19.4885 20.8705 19.4382 21.2202 19.4308 21.663H20.4632C20.4632 21.0975 20.599 20.6641 20.8705 20.3627L21.4788 19.7601C22.0815 19.1276 22.3828 18.4859 22.3828 17.8348C22.3828 17.1763 22.1856 16.6592 21.7913 16.2835C21.4007 15.904 20.8538 15.7143 20.1507 15.7143C19.4736 15.7143 18.923 15.9003 18.4989 16.2723C18.0785 16.6406 17.8646 17.1261 17.8571 17.7288H18.8895C18.8895 17.3903 19.0048 17.1205 19.2355 16.9197C19.4662 16.7188 19.7712 16.6183 20.1507 16.6183C20.5413 16.6183 20.8389 16.7299 21.0435 16.9531C21.2481 17.1726 21.3505 17.4777 21.3505 17.8683C21.3505 18.2738 21.1942 18.6533 20.8817 19.0067L20.1507 19.7601C19.8642 20.0726 19.6745 20.3572 19.5815 20.6138Z" fill="#C2C2C2"/>
<path d="M20.4643 23.0402C20.4643 23.3262 20.2324 23.558 19.9464 23.558C19.6604 23.558 19.4286 23.3262 19.4286 23.0402C19.4286 22.7542 19.6604 22.5223 19.9464 22.5223C20.2324 22.5223 20.4643 22.7542 20.4643 23.0402Z" fill="#C4C4C4"/>
</svg>
